<svg width="24" height="24" viewBox="0 0 24 24" fill="none" xmlns="http://www.w3.org/2000/svg">
<path d="M7.80957 2.5H16.1904C17.9108 2.50008 19.2233 3.01135 20.1045 3.89355C20.9306 4.72074 21.4302 5.92613 21.4854 7.49121L21.4902 7.80859V16.1904C21.4901 17.9107 20.9792 19.2239 20.0967 20.1064C19.2141 20.9891 17.9003 21.5 16.1797 21.5H7.80957C6.08923 21.4999 4.77604 20.9891 3.89355 20.1055C3.01097 19.2217 2.5 17.9056 2.5 16.1797V7.80957C2.50009 6.08922 3.011 4.77611 3.89355 3.89355C4.77611 3.011 6.08922 2.50009 7.80957 2.5ZM14.5938 6.82617C14.1085 6.34095 13.3114 6.34092 12.8262 6.82617C12.3409 7.31142 12.3409 8.10848 12.8262 8.59375L14.9834 10.75H6C5.31386 10.75 4.75 11.3139 4.75 12C4.75 12.6861 5.31386 13.25 6 13.25H14.9834L12.8262 15.4062C12.3409 15.8915 12.3409 16.6886 12.8262 17.1738C13.0749 17.4225 13.3945 17.54 13.71 17.54C13.986 17.54 14.265 17.4499 14.4971 17.2607L14.5938 17.1738L18.8838 12.8838C19.1165 12.6511 19.25 12.3341 19.25 12C19.25 11.7075 19.1475 11.4282 18.9658 11.207L18.8838 11.1162L14.5938 6.82617Z" stroke="#263238"/>
</svg>
