<svg width="80" height="80" viewBox="0 0 80 80" fill="none" xmlns="http://www.w3.org/2000/svg">
<g clip-path="url(#clip0_53_659)">
<path d="M40.0025 16.0012C29.3356 16.0012 22.6713 21.3325 20.0025 31.9993C24.0013 26.6675 28.6694 24.6681 34.0013 26.0012C37.0456 26.76 39.2213 28.9675 41.6306 31.4137C45.5519 35.3931 50.0906 40 60.0025 40C70.6688 40 77.3338 34.6681 80.0025 23.9987C76.0025 29.3333 71.336 31.3337 66.0031 30C62.9594 29.2406 60.7863 27.0337 58.3738 24.5875C54.455 20.6081 49.9175 16.0012 40.0025 16.0012ZM20.0025 40C9.33625 40 2.67125 45.3318 0.00250244 56.0012C4.00209 50.6666 8.66834 48.6662 14.0013 50C17.0456 50.7593 19.2213 52.9662 21.6306 55.4125C25.5519 59.3918 30.0906 63.9987 40.0025 63.9987C50.6688 63.9987 57.3338 58.6675 60.0025 48.0006C56.0025 53.3327 51.336 55.3321 46.0031 53.9987C42.9594 53.24 40.7863 51.0325 38.3737 48.5862C34.455 44.6068 29.9175 40 20.0025 40Z" fill="#38BDF8"/>
</g>
<defs>
<clipPath id="clip0_53_659">
<rect width="80" height="80" fill="white"/>
</clipPath>
</defs>
</svg>
