<svg width="80" height="80" viewBox="0 0 80 80" fill="none" xmlns="http://www.w3.org/2000/svg">
<path d="M14.1669 1H65.8331C73.6669 1 80 7.33312 80 15.1669V64.8331C80 72.6669 73.6669 79 65.8331 79H14.1669C6.33312 79 0 72.6669 0 64.8331V15.1669C0 7.33312 6.33312 1 14.1669 1Z" fill="#001E36"/>
<path d="M28.6669 20.8331C27.6669 20.8331 26.6669 20.8331 25.6338 20.8669C24.6 20.9 23.6331 20.9 22.7331 20.9338C21.8331 20.9669 21 20.9669 20.2 21C19.4331 21.0331 18.9 21.0331 18.3331 21.0331C18.1 21.0331 18 21.1663 18 21.4V55.7C18 56 18.1331 56.1338 18.4 56.1338H24.8669C25.1 56.1 25.2669 55.9 25.2331 55.6669V44.9669C25.8663 44.9669 26.3331 44.9669 26.6669 45C27 45.0331 27.5331 45.0331 28.3331 45.0331C31.0669 45.0331 33.5669 44.7331 35.8331 43.9C38 43.1 39.8669 41.7 41.2 39.8331C42.5333 37.9665 43.2 35.5998 43.2 32.7331C43.2 31.2331 42.9337 29.8 42.4337 28.4C41.9039 26.9737 41.074 25.6778 40 24.6C38.7324 23.3685 37.2065 22.4347 35.5331 21.8663C33.6663 21.1663 31.4 20.8331 28.6669 20.8331ZM29.4106 27.3988C30.5981 27.4213 31.7544 27.6288 32.8331 28.0663C33.8 28.4331 34.6 29.1 35.1669 29.9663C35.6985 30.8628 35.9645 31.8919 35.9338 32.9338C35.9338 34.4 35.6 35.5338 34.9 36.3669C34.1663 37.2 33.2331 37.8338 32.1669 38.1338C30.9331 38.5338 29.6331 38.7331 28.3331 38.7331H26.5663C26.1663 38.7331 25.7337 38.7 25.2669 38.6669V27.4669C25.5 27.4331 25.9669 27.4 26.6337 27.4338C27.2669 27.4 28.0331 27.4 28.9 27.4C29.0708 27.3958 29.241 27.3954 29.4106 27.3988ZM57.3669 29.1006C55 29.1006 53.0331 29.4669 51.4669 30.2669C50.0338 30.9338 48.8 32 47.9669 33.3331C47.2338 34.5669 46.8331 35.9331 46.8331 37.3669C46.8046 38.5461 47.0681 39.7141 47.6 40.7669C48.2234 41.8879 49.089 42.8558 50.1337 43.6C51.6001 44.6029 53.1913 45.4098 54.8669 46C56.5 46.6331 57.6 47.1331 58.1338 47.5663C58.6669 48 58.9338 48.4331 58.9338 48.9C58.9338 49.5 58.5669 50.0669 58.0338 50.3C57.4338 50.6 56.5338 50.7669 55.2669 50.7669C53.9338 50.7669 52.6 50.6 51.3331 50.2669C49.8785 49.942 48.4838 49.3909 47.2 48.6338C47.1 48.5669 47 48.5338 46.9 48.6006C46.8 48.6669 46.7669 48.8 46.7669 48.9V54.7C46.7338 54.9669 46.9 55.2 47.1338 55.3331C48.2147 55.8381 49.3581 56.1969 50.5337 56.4C52.0337 56.7 53.5331 56.8331 55.0663 56.8331C57.4663 56.8331 59.4669 56.4669 61.1 55.7669C62.6 55.1669 63.9 54.1338 64.8331 52.8C65.7071 51.4888 66.1605 49.9424 66.1331 48.3669C66.166 47.1767 65.9027 45.997 65.3669 44.9338C64.7331 43.8 63.8331 42.8669 62.7331 42.1669C61.1239 41.1563 59.4009 40.3394 57.6 39.7331C56.7958 39.4003 56.0061 39.0333 55.2331 38.6331C54.8 38.4 54.4 38.1 54.1 37.7331C53.9 37.4663 53.7669 37.1669 53.7669 36.8669C53.7669 36.5669 53.8669 36.2338 54.0331 35.9669C54.2669 35.6338 54.6331 35.4 55.0663 35.3C55.7 35.1338 56.4 35.0331 57.0662 35.0663C58.3331 35.0663 59.5662 35.2331 60.8 35.5C61.9337 35.7331 63 36.1 64 36.6338C64.1331 36.7 64.3 36.7 64.6 36.6338C64.6521 36.5952 64.6943 36.5448 64.7233 36.4868C64.7523 36.4288 64.7672 36.3648 64.7669 36.3V30.8669C64.7669 30.7331 64.7331 30.6 64.7 30.4669C64.6331 30.3338 64.5 30.2 64.3669 30.1669C63.4475 29.7911 62.4842 29.5334 61.5 29.4C60.1313 29.2007 58.75 29.1011 57.3669 29.1006Z" fill="#31A8FF"/>
</svg>
