<svg width="36" height="36" viewBox="0 0 36 36" fill="none" xmlns="http://www.w3.org/2000/svg">
<g clip-path="url(#clip0_54_664)">
<path d="M32.625 0.843758H3.375C2.71134 0.837004 2.0721 1.0938 1.59755 1.5578C1.12301 2.02181 0.851909 2.65511 0.84375 3.31876V32.6869C0.853385 33.3495 1.12513 33.9814 1.59952 34.4442C2.0739 34.907 2.7123 35.163 3.375 35.1563H32.625C33.2887 35.1615 33.9275 34.9039 34.4018 34.4396C34.8761 33.9753 35.1474 33.3421 35.1562 32.6784V3.31032C35.1444 2.64862 34.8719 2.01833 34.3979 1.55646C33.9239 1.09459 33.2868 0.838464 32.625 0.843758Z" fill="#0076B2"/>
<path d="M5.92312 13.7053H11.0166V30.0938H5.92312V13.7053ZM8.47125 5.54907C9.05544 5.54907 9.62651 5.72234 10.1122 6.04696C10.5979 6.37158 10.9764 6.83296 11.1999 7.37274C11.4233 7.91251 11.4816 8.50643 11.3674 9.07936C11.2532 9.65229 10.9717 10.1785 10.5584 10.5914C10.1451 11.0043 9.61869 11.2853 9.04565 11.3989C8.47261 11.5126 7.87875 11.4537 7.33919 11.2297C6.79962 11.0058 6.3386 10.6268 6.01445 10.1408C5.69029 9.65481 5.51757 9.08358 5.51812 8.49938C5.51887 7.71665 5.83033 6.96624 6.38407 6.41303C6.93781 5.85982 7.68852 5.54907 8.47125 5.54907ZM14.2116 13.7053H19.0941V15.9553H19.1616C19.8422 14.6672 21.5016 13.3088 23.9794 13.3088C29.1375 13.2975 30.0938 16.6922 30.0938 21.0938V30.0938H25.0003V22.1203C25.0003 20.2219 24.9666 17.7778 22.3538 17.7778C19.7409 17.7778 19.2966 19.8478 19.2966 21.9966V30.0938H14.2116V13.7053Z" fill="white"/>
</g>
<defs>
<clipPath id="clip0_54_664">
<rect width="36" height="36" fill="white"/>
</clipPath>
</defs>
</svg>
