<svg width="80" height="80" viewBox="0 0 80 80" fill="none" xmlns="http://www.w3.org/2000/svg">
<g clip-path="url(#clip0_110_87)">
<path d="M77.9606 36.4862L43.5131 2.04C41.5306 0.0562476 38.3131 0.0562476 36.3275 2.04L29.175 9.19375L38.2488 18.2675C40.3581 17.5556 42.7756 18.0331 44.4563 19.7137C46.1456 21.405 46.6194 23.8431 45.89 25.9594L54.635 34.705C56.7506 33.9756 59.1925 34.4469 60.8813 36.1394C63.2438 38.5 63.2438 42.3269 60.8813 44.6887C60.3198 45.2504 59.6532 45.696 58.9196 46C58.1859 46.304 57.3995 46.4605 56.6053 46.4605C55.8111 46.4605 55.0248 46.304 54.2911 46C53.5574 45.696 52.8908 45.2504 52.3294 44.6887C51.4861 43.8446 50.9113 42.7699 50.6772 41.5999C50.4431 40.4299 50.5602 39.2168 51.0138 38.1131L42.8588 29.9581L42.8575 51.4212C43.4492 51.7126 43.9895 52.0984 44.4569 52.5637C46.8181 54.9244 46.8181 58.75 44.4569 61.1156C42.095 63.4762 38.2669 63.4762 35.9075 61.1156C33.5463 58.7506 33.5463 54.925 35.9075 52.5637C36.4738 51.9978 37.1465 51.5496 37.8869 51.245V29.5831C37.1456 29.2798 36.4726 28.8312 35.9075 28.2637C34.1188 26.4762 33.6881 23.8512 34.6056 21.6537L25.66 12.7081L2.04001 36.3269C1.08708 37.2801 0.551758 38.5728 0.551758 39.9206C0.551758 41.2685 1.08708 42.5611 2.04001 43.5144L36.4881 77.9606C38.4719 79.9444 41.6881 79.9444 43.675 77.9606L77.9613 43.6744C78.914 42.7209 79.4491 41.4281 79.449 40.0802C79.4489 38.7323 78.9135 37.4396 77.9606 36.4862Z" fill="#F34F29"/>
</g>
<defs>
<clipPath id="clip0_110_87">
<rect width="80" height="80" fill="white"/>
</clipPath>
</defs>
</svg>
