<svg width="34" height="34" viewBox="0 0 34 34" fill="none" xmlns="http://www.w3.org/2000/svg">
<rect width="34" height="34" rx="8" fill="#263238"/>
<g clip-path="url(#clip0_225_41)">
<path d="M11.4715 18.8938L9.55945 16.9818L11.8692 14.672C13.958 12.5833 17.3565 12.5833 19.4454 14.672L17.5333 16.5841C16.4989 15.5497 14.8156 15.5496 13.7812 16.5841L11.4715 18.8938Z" fill="white"/>
<path d="M18.4839 20.9908C17.053 20.9908 15.7076 20.4336 14.6959 19.4217C12.6071 17.3329 12.6071 13.9343 14.6959 11.8455L19.2845 7.25684C20.2964 6.24499 21.6417 5.68774 23.0727 5.68774C24.5036 5.68774 25.8489 6.24499 26.8608 7.25684C27.8726 8.26868 28.4299 9.61404 28.4299 11.0449C28.4299 12.4759 27.8726 13.8212 26.8608 14.8331L22.272 19.4217C21.2602 20.4336 19.915 20.9908 18.4839 20.9908ZM23.0727 8.39178C22.364 8.39178 21.6977 8.66778 21.1966 9.16887L16.6079 13.7576C15.5734 14.792 15.5734 16.4752 16.6079 17.5097C17.109 18.0108 17.7753 18.2868 18.4839 18.2868C19.1926 18.2868 19.8589 18.0108 20.3599 17.5097L24.9487 12.921C25.4498 12.4199 25.7258 11.7536 25.7258 11.0449C25.7258 10.3362 25.4498 9.67001 24.9487 9.16887C24.4476 8.66778 23.7813 8.39178 23.0727 8.39178Z" fill="white"/>
<path d="M21.1219 8.30075C20.8591 8.30075 20.6045 8.16125 20.4692 7.91464C20.2717 7.55459 20.4035 7.10258 20.7635 6.90505C22.2344 6.09828 24.0034 6.09387 25.3804 6.89361C25.7355 7.09986 25.8562 7.55497 25.6499 7.91014C25.4437 8.26526 24.9886 8.38592 24.6334 8.17967C23.7184 7.6482 22.4801 7.65964 21.4788 8.20897C21.3694 8.26914 21.2467 8.30071 21.1219 8.30075ZM11.0685 28.4037C9.69665 28.4037 8.32481 27.8815 7.28043 26.8372C5.19168 24.7484 5.19168 21.3497 7.28043 19.2609L10.5835 15.9579L12.4955 17.87L9.19246 21.173C8.15802 22.2075 8.15802 23.8907 9.19246 24.9252C9.70963 25.4423 10.3892 25.7009 11.0685 25.701C11.748 25.7011 12.4273 25.4424 12.9446 24.9252L17.5333 20.3364C18.0344 19.8353 18.3104 19.169 18.3104 18.4604C18.3104 17.7517 18.0344 17.0855 17.5333 16.5844L19.4453 14.6723C21.5341 16.7611 21.5341 20.1597 19.4453 22.2485L14.8566 26.8372C13.8123 27.8816 12.4404 28.4037 11.0685 28.4037Z" fill="white"/>
</g>
<defs>
<clipPath id="clip0_225_41">
<rect width="24" height="24" fill="white" transform="translate(5 5)"/>
</clipPath>
</defs>
</svg>
