<svg width="34" height="34" viewBox="0 0 34 34" fill="none" xmlns="http://www.w3.org/2000/svg">
<rect width="34" height="34" rx="8" fill="#263238"/>
<path fill-rule="evenodd" clip-rule="evenodd" d="M16.3747 8.21752C11.8042 8.53748 8.19576 12.3466 8.19576 16.9985C8.19576 21.8601 12.1369 25.8012 16.9985 25.8012C20.8934 25.8012 24.1981 23.2711 25.3578 19.7652C24.4653 20.1339 23.4871 20.3374 22.4622 20.3374C18.2712 20.3374 14.8737 16.9399 14.8737 12.7489C14.8737 11.0501 15.4323 9.48167 16.3747 8.21752ZM6.37451 16.9985C6.37451 11.131 11.131 6.37451 16.9985 6.37451C17.5444 6.37451 18.0812 6.41576 18.606 6.49547C18.969 6.5506 19.2633 6.81833 19.3525 7.17448C19.4418 7.53063 19.3084 7.90552 19.0143 8.12527C17.6046 9.17845 16.6949 10.8573 16.6949 12.7489C16.6949 15.9341 19.277 18.5162 22.4622 18.5162C23.8394 18.5162 25.1016 18.0346 26.0932 17.2299C26.3782 16.9987 26.7741 16.9611 27.0975 17.1346C27.4209 17.308 27.6085 17.6587 27.5735 18.024C27.057 23.4107 22.5201 27.6224 16.9985 27.6224C11.131 27.6224 6.37451 22.8659 6.37451 16.9985Z" fill="#E8E8E8"/>
</svg>
