<svg width="27" height="27" viewBox="0 0 27 27" fill="none" xmlns="http://www.w3.org/2000/svg">
<path d="M0 10C0 4.47716 4.47715 0 10 0H16.7288C22.2516 0 26.7287 4.47715 26.7287 10V16.729C26.7287 22.2518 22.2516 26.729 16.7287 26.729H9.99999C4.47715 26.729 0 22.2518 0 16.729V10Z" fill="#F0DB4F"/>
<path d="M24.5412 20.3541C24.3454 19.1347 23.5503 18.1105 21.195 17.1554C20.6705 16.9144 20.1075 16.7173 19.6992 16.4435C19.2788 16.1615 19.0147 15.632 19.1359 15.1405C19.1386 15.1296 19.1415 15.1186 19.1446 15.1076C19.3199 14.3987 20.1661 14.1778 20.8367 14.381C20.9251 14.4106 21.0125 14.4481 21.0978 14.4936C21.6759 14.8019 22.5309 14.9952 23.083 14.6424C23.5848 14.3217 23.6537 13.6946 23.2353 13.2707C22.5416 12.4959 21.5964 12.0968 20.0847 12.1274L19.2973 12.2292C18.5427 12.4199 17.8236 12.8159 17.4019 13.347C16.1366 14.7826 16.4974 17.2953 18.0371 18.3293C19.5539 19.4678 21.7822 19.7268 22.0668 20.7914C22.3437 22.0947 21.1089 22.5166 19.8817 22.3667C19.3893 22.2643 19.0159 22.0815 18.6902 21.8012C18.182 21.3642 17.4909 21.1379 16.9103 21.4728C16.3468 21.7978 16.1129 22.5114 16.546 22.9967C16.6268 23.0873 16.7141 23.1833 16.8098 23.2915C18.746 25.2554 23.5911 25.1589 24.4601 22.1863C24.4953 22.0842 24.7293 21.4035 24.5412 20.3541ZM14.5315 13.5357C14.5305 12.8448 13.9704 12.2847 13.2795 12.2847C12.5894 12.2847 12.0296 12.8436 12.0285 13.5338L12.0202 18.7483C12.0202 20.1229 12.0913 21.383 11.8678 21.7693C11.502 22.529 10.5542 22.4348 10.1223 22.2875C9.68265 22.0714 9.4591 21.7642 9.20011 21.3299C9.11602 21.1824 8.97197 21.1537 8.82719 21.2424L8.32614 21.5492C7.58819 22.0011 7.28489 22.981 7.91089 23.5784C8.09095 23.7502 8.28713 23.9032 8.49871 24.033C9.45142 24.6048 10.7319 24.7801 12.071 24.4726C12.9426 24.2188 13.6946 23.6929 14.0883 22.8924C14.6576 21.843 14.5354 20.5728 14.5303 19.1678C14.5408 17.2917 14.5343 15.4158 14.5315 13.5357Z" fill="#323330"/>
</svg>
