<svg width="34" height="34" viewBox="0 0 34 34" fill="none" xmlns="http://www.w3.org/2000/svg">
<rect width="34" height="34" rx="8" fill="#E8E8E8"/>
<path d="M17 6.25C17.4142 6.25 17.75 6.58579 17.75 7V8C17.75 8.41421 17.4142 8.75 17 8.75C16.5858 8.75 16.25 8.41421 16.25 8V7C16.25 6.58579 16.5858 6.25 17 6.25Z" fill="black"/>
<path fill-rule="evenodd" clip-rule="evenodd" d="M11.25 17C11.25 13.8244 13.8244 11.25 17 11.25C20.1756 11.25 22.75 13.8244 22.75 17C22.75 20.1756 20.1756 22.75 17 22.75C13.8244 22.75 11.25 20.1756 11.25 17ZM17 12.75C14.6528 12.75 12.75 14.6528 12.75 17C12.75 19.3472 14.6528 21.25 17 21.25C19.3472 21.25 21.25 19.3472 21.25 17C21.25 14.6528 19.3472 12.75 17 12.75Z" fill="black"/>
<path d="M10.4593 9.39862C10.1664 9.10573 9.69151 9.10573 9.39862 9.39862C9.10572 9.69152 9.10572 10.1664 9.39862 10.4593L10.1057 11.1664C10.3986 11.4593 10.8735 11.4593 11.1664 11.1664C11.4593 10.8735 11.4593 10.3986 11.1664 10.1057L10.4593 9.39862Z" fill="black"/>
<path d="M27.75 17C27.75 17.4142 27.4142 17.75 27 17.75H26C25.5858 17.75 25.25 17.4142 25.25 17C25.25 16.5858 25.5858 16.25 26 16.25H27C27.4142 16.25 27.75 16.5858 27.75 17Z" fill="black"/>
<path d="M24.6014 10.4593C24.8943 10.1664 24.8943 9.69151 24.6014 9.39862C24.3085 9.10572 23.8336 9.10572 23.5407 9.39862L22.8336 10.1057C22.5407 10.3986 22.5407 10.8735 22.8336 11.1664C23.1265 11.4593 23.6014 11.4593 23.8943 11.1664L24.6014 10.4593Z" fill="black"/>
<path d="M17 25.25C17.4142 25.25 17.75 25.5858 17.75 26V27C17.75 27.4142 17.4142 27.75 17 27.75C16.5858 27.75 16.25 27.4142 16.25 27V26C16.25 25.5858 16.5858 25.25 17 25.25Z" fill="black"/>
<path d="M23.8943 22.8336C23.6014 22.5407 23.1266 22.5407 22.8337 22.8336C22.5408 23.1265 22.5408 23.6014 22.8337 23.8943L23.5408 24.6014C23.8337 24.8943 24.3085 24.8943 24.6014 24.6014C24.8943 24.3085 24.8943 23.8336 24.6014 23.5407L23.8943 22.8336Z" fill="black"/>
<path d="M8.75 17C8.75 17.4142 8.41421 17.75 8 17.75H7C6.58579 17.75 6.25 17.4142 6.25 17C6.25 16.5858 6.58579 16.25 7 16.25H8C8.41421 16.25 8.75 16.5858 8.75 17Z" fill="black"/>
<path d="M11.1663 23.8943C11.4592 23.6014 11.4592 23.1265 11.1663 22.8336C10.8734 22.5407 10.3985 22.5407 10.1057 22.8336L9.39855 23.5407C9.10566 23.8336 9.10566 24.3085 9.39855 24.6014C9.69144 24.8943 10.1663 24.8943 10.4592 24.6014L11.1663 23.8943Z" fill="black"/>
</svg>
