<svg width="80" height="80" viewBox="0 0 80 80" fill="none" xmlns="http://www.w3.org/2000/svg">
<path d="M30 10H40V30H30C27.3478 30 24.8043 28.9464 22.9289 27.0711C21.0536 25.1957 20 22.6522 20 20C20 17.3478 21.0536 14.8043 22.9289 12.9289C24.8043 11.0536 27.3478 10 30 10Z" fill="#F4511E"/>
<path d="M50 30H40V10H50C52.6522 10 55.1957 11.0536 57.0711 12.9289C58.9464 14.8043 60 17.3478 60 20C60 22.6522 58.9464 25.1957 57.0711 27.0711C55.1957 28.9464 52.6522 30 50 30Z" fill="#FF8A65"/>
<path d="M40 40C40 45.5228 44.4772 50 50 50C55.5228 50 60 45.5228 60 40C60 34.4772 55.5228 30 50 30C44.4772 30 40 34.4772 40 40Z" fill="#29B6F6"/>
<path d="M30 30H40V50H30C27.3478 50 24.8043 48.9464 22.9289 47.0711C21.0536 45.1957 20 42.6522 20 40C20 37.3478 21.0536 34.8043 22.9289 32.9289C24.8043 31.0536 27.3478 30 30 30Z" fill="#7C4DFF"/>
<path d="M30 50H40V60C40 62.6522 38.9464 65.1957 37.0711 67.0711C35.1957 68.9464 32.6522 70 30 70C27.3478 70 24.8043 68.9464 22.9289 67.0711C21.0536 65.1957 20 62.6522 20 60C20 57.3478 21.0536 54.8043 22.9289 52.9289C24.8043 51.0536 27.3478 50 30 50Z" fill="#00E676"/>
</svg>
