<svg width="80" height="80" viewBox="0 0 80 80" fill="none" xmlns="http://www.w3.org/2000/svg">
<path d="M40 30C58.61 30 70 36.475 70 40C70 43.525 58.61 50 40 50C21.39 50 10 43.525 10 40C10 36.475 21.39 30 40 30ZM40 25C20.67 25 5 31.715 5 40C5 48.285 20.67 55 40 55C59.33 55 75 48.285 75 40C75 31.715 59.33 25 40 25Z" fill="white"/>
<path d="M40 35C39.0111 35 38.0444 35.2932 37.2222 35.8427C36.3999 36.3921 35.759 37.173 35.3806 38.0866C35.0022 39.0002 34.9031 40.0055 35.0961 40.9755C35.289 41.9454 35.7652 42.8363 36.4645 43.5355C37.1637 44.2348 38.0546 44.711 39.0246 44.9039C39.9945 45.0969 40.9998 44.9978 41.9134 44.6194C42.8271 44.241 43.6079 43.6001 44.1574 42.7779C44.7068 41.9556 45 40.9889 45 40C45 38.6739 44.4732 37.4021 43.5355 36.4645C42.5979 35.5268 41.3261 35 40 35Z" fill="white"/>
<path d="M26.145 13.7676C31.1875 13.7676 40.9875 21.7101 48.66 35.0001C57.965 51.1176 58.0525 64.2176 55 65.9801C54.6478 66.1627 54.2537 66.2489 53.8575 66.2301C48.815 66.2301 39.0125 58.2901 31.34 45.0001C22.035 28.8826 21.9475 15.7826 25 14.0201C25.3529 13.8371 25.7479 13.7483 26.145 13.7676ZM26.1425 8.77008C24.8684 8.74702 23.6111 9.06371 22.5 9.68758C15.325 13.8301 17.345 30.7601 27.01 47.5001C35.22 61.7251 46.31 71.2326 53.86 71.2326C55.1337 71.2537 56.39 70.9353 57.5 70.3101C64.675 66.1701 62.655 49.2401 52.99 32.5001C44.78 18.2751 33.69 8.76758 26.14 8.76758L26.1425 8.77008Z" fill="white"/>
<path d="M53.8575 13.7674C54.2537 13.7486 54.6479 13.8348 55 14.0174C58.0525 15.7824 57.965 28.8824 48.66 44.9999C40.985 58.2899 31.185 66.2324 26.1425 66.2324C25.7463 66.2512 25.3522 66.165 25 65.9824C21.9475 64.2149 22.035 51.1149 31.34 34.9999C39.015 21.7099 48.815 13.7674 53.8575 13.7674ZM53.8575 8.76738C46.3075 8.76738 35.22 18.2774 27.0075 32.4999C17.3475 49.2399 15.325 66.1699 22.5 70.3099C23.6107 70.9355 24.868 71.2539 26.1425 71.2324C33.6925 71.2324 44.78 61.7224 52.9925 47.4999C62.6525 30.7599 64.675 13.8299 57.5 9.68988C56.3894 9.06427 55.1321 8.74585 53.8575 8.76738Z" fill="white"/>
</svg>
