<svg width="80" height="80" viewBox="0 0 80 80" fill="none" xmlns="http://www.w3.org/2000/svg">
<path d="M75.675 57.5L58.35 27.5C57.9156 26.7372 57.286 26.1037 56.526 25.6643C55.766 25.225 54.9029 24.9957 54.025 25C53.1462 24.9905 52.2809 25.2176 51.52 25.6574C50.7591 26.0973 50.1305 26.7337 49.7 27.5L44.025 37.325L34.325 20.55C33.8875 19.7897 33.2574 19.1582 32.4981 18.7191C31.7388 18.28 30.8772 18.0488 30 18.0488C29.1229 18.0488 28.2613 18.28 27.502 18.7191C26.7427 19.1582 26.1125 19.7897 25.675 20.55L4.32503 57.5C3.8864 58.2597 3.65538 59.1214 3.65515 59.9987C3.65493 60.8759 3.88551 61.7378 4.32374 62.4977C4.76198 63.2577 5.39244 63.889 6.15182 64.3282C6.9112 64.7674 7.77278 64.9991 8.65003 65H30.9375C33.5712 65.0001 36.1584 64.3068 38.4392 62.9898C40.7199 61.6728 42.6136 59.7785 43.93 57.4975L54.025 40L62.675 55H56.9L51.125 65H71.35C72.2273 64.9991 73.0889 64.7674 73.8482 64.3282C74.6076 63.889 75.2381 63.2577 75.6763 62.4977C76.1145 61.7378 76.3451 60.8759 76.3449 59.9987C76.3447 59.1214 76.1137 58.2597 75.675 57.5ZM30.935 55H17.325L30 33.05L38.25 47.325L35.2675 52.4975C34.8288 53.2584 34.1974 53.8903 33.4368 54.3296C32.6762 54.7689 31.8134 55.0001 30.935 55Z" fill="#00E676"/>
</svg>
