<svg width="80" height="80" viewBox="0 0 80 80" fill="none" xmlns="http://www.w3.org/2000/svg">
<path d="M40 30C58.61 30 70 36.475 70 40C70 43.525 58.61 50 40 50C21.39 50 10 43.525 10 40C10 36.475 21.39 30 40 30ZM40 25C20.67 25 5 31.715 5 40C5 48.285 20.67 55 40 55C59.33 55 75 48.285 75 40C75 31.715 59.33 25 40 25Z" fill="#00BCD4"/>
<path d="M40 35C39.0111 35 38.0444 35.2932 37.2222 35.8427C36.3999 36.3921 35.759 37.173 35.3806 38.0866C35.0022 39.0002 34.9031 40.0055 35.0961 40.9755C35.289 41.9454 35.7652 42.8363 36.4645 43.5355C37.1637 44.2348 38.0546 44.711 39.0246 44.9039C39.9945 45.0969 40.9998 44.9978 41.9134 44.6194C42.8271 44.241 43.6079 43.6001 44.1574 42.7779C44.7068 41.9556 45 40.9889 45 40C45 38.6739 44.4732 37.4021 43.5355 36.4645C42.5979 35.5268 41.3261 35 40 35Z" fill="#00BCD4"/>
<path d="M26.145 13.7675C31.1875 13.7675 40.9875 21.71 48.66 35C57.965 51.1175 58.0525 64.2175 55 65.98C54.6478 66.1625 54.2537 66.2488 53.8575 66.23C48.815 66.23 39.0125 58.29 31.34 45C22.035 28.8825 21.9475 15.7825 25 14.02C25.3529 13.8369 25.7479 13.7482 26.145 13.7675ZM26.1425 8.76996C24.8684 8.7469 23.6111 9.06359 22.5 9.68746C15.325 13.83 17.345 30.76 27.01 47.5C35.22 61.725 46.31 71.2325 53.86 71.2325C55.1337 71.2535 56.39 70.9351 57.5 70.31C64.675 66.17 62.655 49.24 52.99 32.5C44.78 18.275 33.69 8.76746 26.14 8.76746L26.1425 8.76996Z" fill="#00BCD4"/>
<path d="M53.8575 13.7675C54.2537 13.7487 54.6479 13.8349 55 14.0175C58.0525 15.7825 57.965 28.8825 48.66 45C40.985 58.29 31.185 66.2325 26.1425 66.2325C25.7463 66.2513 25.3522 66.1651 25 65.9825C21.9475 64.215 22.035 51.115 31.34 35C39.015 21.71 48.815 13.7675 53.8575 13.7675ZM53.8575 8.7675C46.3075 8.7675 35.22 18.2775 27.0075 32.5C17.3475 49.24 15.325 66.17 22.5 70.31C23.6107 70.9356 24.868 71.254 26.1425 71.2325C33.6925 71.2325 44.78 61.7225 52.9925 47.5C62.6525 30.76 64.675 13.83 57.5 9.69C56.3894 9.06439 55.1321 8.74597 53.8575 8.7675Z" fill="#00BCD4"/>
</svg>
