<svg width="44" height="44" viewBox="0 0 44 44" fill="none" xmlns="http://www.w3.org/2000/svg">
<path d="M41.1767 11C39.765 11.6417 38.2433 12.0634 36.6667 12.265C38.28 11.2934 39.5267 9.75337 40.1133 7.90171C38.5917 8.81837 36.905 9.46004 35.1267 9.82671C33.6783 8.25004 31.6433 7.33337 29.3333 7.33337C25.025 7.33337 21.505 10.8534 21.505 15.1984C21.505 15.8217 21.5783 16.4267 21.7067 16.995C15.18 16.665 9.36833 13.53 5.5 8.78171C4.82167 9.93671 4.43667 11.2934 4.43667 12.7234C4.43667 15.455 5.81167 17.875 7.93833 19.25C6.63667 19.25 5.42667 18.8834 4.36333 18.3334V18.3884C4.36333 22.2017 7.07667 25.3917 10.67 26.1067C9.51654 26.4238 8.30507 26.4677 7.13167 26.235C7.62961 27.7979 8.60482 29.1655 9.9202 30.1454C11.2356 31.1254 12.825 31.6685 14.465 31.6984C11.6851 33.8993 8.23902 35.0889 4.69333 35.0717C4.07 35.0717 3.44667 35.035 2.82333 34.9617C6.30667 37.1984 10.45 38.5 14.8867 38.5C29.3333 38.5 37.2717 26.51 37.2717 16.115C37.2717 15.7667 37.2717 15.4367 37.2533 15.0884C38.7933 13.9884 40.1133 12.595 41.1767 11Z" fill="#55ACEE"/>
</svg>
