<svg width="80" height="80" viewBox="0 0 80 80" fill="none" xmlns="http://www.w3.org/2000/svg">
<g clip-path="url(#clip0_53_642)">
<path fill-rule="evenodd" clip-rule="evenodd" d="M40 7.49996C34.9163 7.50177 29.9039 8.69615 25.3656 10.9871C20.8274 13.2781 16.8898 16.6017 13.8695 20.6909C10.8491 24.7801 8.83015 29.5208 7.97485 34.5321C7.11955 39.5433 7.45177 44.6854 8.94481 49.5449C10.4378 54.4044 13.0501 58.8459 16.5715 62.5125C20.093 66.179 24.4255 68.9683 29.2208 70.6562C34.0161 72.3442 39.1405 72.8836 44.1822 72.2312C49.2239 71.5789 54.0422 69.7528 58.25 66.9L30 32.885V56.25C30 57.2445 29.6049 58.1983 28.9017 58.9016C28.1984 59.6049 27.2446 60 26.25 60C25.2554 60 24.3016 59.6049 23.5984 58.9016C22.8951 58.1983 22.5 57.2445 22.5 56.25V22.5C22.4991 21.7284 22.7363 20.9753 23.1791 20.3434C23.6219 19.7116 24.2489 19.2317 24.9744 18.9692C25.7 18.7068 26.4889 18.6745 27.2335 18.8769C27.978 19.0792 28.6421 19.5064 29.135 20.1L66.505 65.1C67.1351 65.8569 67.4421 66.8312 67.3598 67.8126C67.2775 68.794 66.8124 69.7036 66.065 70.345C58.6028 76.7474 49.0439 80.1771 39.2136 79.9792C29.3832 79.7813 19.9701 75.9696 12.7716 69.2721C5.57319 62.5745 1.09371 53.4603 0.188542 43.6697C-0.716625 33.8791 2.01594 24.0981 7.86447 16.1943C13.713 8.29049 22.2677 2.81768 31.8952 0.820852C41.5226 -1.17598 51.5483 0.443079 60.0578 5.36887C68.5673 10.2947 74.9645 18.1821 78.0278 27.525C81.0911 36.868 80.606 47.012 76.665 56.02C76.4674 56.4714 76.1827 56.8794 75.8274 57.2209C75.472 57.5623 75.0529 57.8304 74.594 58.0098C74.135 58.1893 73.6452 58.2766 73.1525 58.2667C72.6598 58.2569 72.1739 58.1501 71.7225 57.9525C71.2711 57.7548 70.863 57.4702 70.5216 57.1149C70.1802 56.7595 69.9121 56.3404 69.7326 55.8814C69.5532 55.4225 69.4659 54.9327 69.4757 54.44C69.4856 53.9473 69.5924 53.4614 69.79 53.01C71.5867 48.9085 72.5097 44.4777 72.5 40C72.5 31.3804 69.0759 23.1139 62.981 17.019C56.886 10.9241 48.6195 7.49996 40 7.49996ZM52.5 18.75C53.4946 18.75 54.4484 19.145 55.1516 19.8483C55.8549 20.5516 56.25 21.5054 56.25 22.5V37.5C56.25 38.4945 55.8549 39.4483 55.1516 40.1516C54.4484 40.8549 53.4946 41.25 52.5 41.25C51.5054 41.25 50.5516 40.8549 49.8484 40.1516C49.1451 39.4483 48.75 38.4945 48.75 37.5V22.5C48.75 21.5054 49.1451 20.5516 49.8484 19.8483C50.5516 19.145 51.5054 18.75 52.5 18.75Z" fill="#008697"/>
</g>
<defs>
<clipPath id="clip0_53_642">
<rect width="80" height="80" fill="white"/>
</clipPath>
</defs>
</svg>
