<svg width="29" height="29" viewBox="0 0 29 29" fill="none" xmlns="http://www.w3.org/2000/svg">
<g clip-path="url(#clip0_217_26)">
<path d="M11.8008 1.448C15.0077 0.782953 18.3471 1.32287 21.1816 2.96362C24.0164 4.60453 26.1475 7.2321 27.168 10.3445C28.1245 13.2622 28.0429 16.4142 26.9473 19.2693L26.7139 19.8367C26.6644 19.9496 26.5937 20.052 26.5049 20.1375C26.4159 20.223 26.3103 20.2897 26.1953 20.3347C26.0803 20.3797 25.9575 20.4016 25.834 20.3992C25.7106 20.3967 25.5887 20.3706 25.4756 20.321C25.3625 20.2715 25.2603 20.2 25.1748 20.1111C25.0892 20.022 25.0215 19.9165 24.9766 19.8015C24.9317 19.6866 24.9106 19.5636 24.9131 19.4402C24.9156 19.3168 24.9417 19.1949 24.9912 19.0818C25.5845 17.7273 25.9072 16.2711 25.9424 14.7947L25.9463 14.4988C25.946 11.4636 24.74 8.55225 22.5938 6.40601C20.4473 4.25959 17.5356 3.05444 14.5 3.05444C12.7096 3.05509 10.944 3.47516 9.3457 4.28198C7.74753 5.0888 6.36151 6.2599 5.29785 7.69995C4.2342 9.14001 3.52292 10.8092 3.22168 12.574C2.92047 14.3388 3.03771 16.1497 3.56348 17.8611C4.08929 19.5725 5.00884 21.1372 6.24902 22.4285C7.48919 23.7197 9.01532 24.7022 10.7041 25.2966C12.3927 25.891 14.1973 26.081 15.9727 25.8513C17.7482 25.6216 19.4458 24.9781 20.9277 23.9734L21.2393 23.7625L20.998 23.4724L11.3467 11.8503L10.7422 11.1228V20.0515C10.7422 20.3007 10.643 20.5403 10.4668 20.7166C10.2906 20.8928 10.0509 20.9919 9.80176 20.9919C9.55275 20.9918 9.31379 20.8926 9.1377 20.7166C8.96149 20.5403 8.8623 20.3007 8.8623 20.0515V8.52026C8.8621 8.32696 8.92226 8.13852 9.0332 7.98022C9.14413 7.82197 9.30069 7.70126 9.48242 7.6355C9.66422 7.56974 9.86227 7.56234 10.0488 7.61304C10.2353 7.66377 10.402 7.77006 10.5254 7.9187L23.293 23.2937V23.2947C23.4508 23.4843 23.5284 23.7285 23.5078 23.9744C23.4871 24.2199 23.3705 24.4476 23.1836 24.6082C20.6978 26.741 17.513 27.884 14.2383 27.8181C10.9636 27.7522 7.82766 26.4818 5.42969 24.2507C3.03189 22.0197 1.53984 18.9837 1.23828 15.7224C0.936748 12.4609 1.84663 9.20204 3.79492 6.56909C5.74321 3.93623 8.5937 2.11318 11.8008 1.448ZM18.7705 7.58081C19.0197 7.58081 19.2593 7.68 19.4355 7.8562C19.6116 8.0323 19.7108 8.27125 19.7109 8.52026V13.6453C19.7109 13.8945 19.6118 14.1341 19.4355 14.3103C19.2593 14.4865 19.0197 14.5857 18.7705 14.5857C18.5215 14.5856 18.2825 14.4864 18.1064 14.3103C17.9302 14.1341 17.8311 13.8945 17.8311 13.6453V8.52026C17.8312 8.27124 17.9304 8.0323 18.1064 7.8562C18.2825 7.68011 18.5215 7.58094 18.7705 7.58081Z" fill="white" stroke="white" stroke-width="0.683333"/>
</g>
<defs>
<clipPath id="clip0_217_26">
<rect width="27.3333" height="27.3333" fill="white" transform="translate(0.833374 0.833252)"/>
</clipPath>
</defs>
</svg>
