<svg width="16" height="16" viewBox="0 0 16 16" fill="none" xmlns="http://www.w3.org/2000/svg">
<path d="M10.7934 1.33337H5.20671C2.78004 1.33337 1.33337 2.78004 1.33337 5.20671V10.7867C1.33337 13.22 2.78004 14.6667 5.20671 14.6667H10.7867C13.2134 14.6667 14.66 13.22 14.66 10.7934V5.20671C14.6667 2.78004 13.22 1.33337 10.7934 1.33337ZM5.76004 8.54004L8.68004 5.62004H7.06004C6.78671 5.62004 6.56004 5.39337 6.56004 5.12004C6.56004 4.84671 6.78671 4.62004 7.06004 4.62004H9.88671C9.95337 4.62004 10.0134 4.63337 10.08 4.66004C10.2 4.71337 10.3 4.80671 10.3534 4.93337C10.38 4.99337 10.3934 5.06004 10.3934 5.12671V7.95337C10.3934 8.22671 10.1667 8.45337 9.89337 8.45337C9.62004 8.45337 9.39337 8.22671 9.39337 7.95337V6.33337L6.46671 9.24671C6.36671 9.34671 6.24004 9.39337 6.11337 9.39337C5.98671 9.39337 5.86004 9.34671 5.76004 9.24671C5.56671 9.05337 5.56671 8.73337 5.76004 8.54004ZM12.16 11.48C10.82 11.9267 9.41337 12.1534 8.00004 12.1534C6.58671 12.1534 5.18004 11.9267 3.84004 11.48C3.58004 11.3934 3.44004 11.1067 3.52671 10.8467C3.61337 10.5867 3.89337 10.44 4.16004 10.5334C6.64004 11.36 9.36671 11.36 11.8467 10.5334C12.1067 10.4467 12.3934 10.5867 12.48 10.8467C12.56 11.1134 12.42 11.3934 12.16 11.48Z" fill="#B1AFAF"/>
</svg>
