<svg width="80" height="80" viewBox="0 0 80 80" fill="none" xmlns="http://www.w3.org/2000/svg">
<path d="M74.71 15.365L41.855 74.115C41.7008 74.3913 41.4758 74.6216 41.2032 74.7824C40.9306 74.9431 40.6201 75.0285 40.3037 75.0298C39.9872 75.0311 39.6761 74.9482 39.4022 74.7896C39.1283 74.6311 38.9015 74.4026 38.745 74.1275L5.24003 15.37C5.07158 15.0752 4.99071 14.7384 5.00692 14.3993C5.02312 14.0601 5.13573 13.7326 5.33152 13.4552C5.52731 13.1778 5.79817 12.962 6.1123 12.8331C6.42643 12.7042 6.77082 12.6676 7.10503 12.7275L39.995 18.6075C40.2041 18.6459 40.4184 18.6459 40.6275 18.6075L72.83 12.7375C73.1629 12.6767 73.5063 12.7117 73.8201 12.8386C74.1338 12.9655 74.405 13.1789 74.6021 13.4541C74.7991 13.7292 74.9139 14.0547 74.933 14.3926C74.9521 14.7305 74.8748 15.0694 74.71 15.365Z" fill="url(#paint0_linear_110_83)"/>
<path d="M55.6599 5.01749L31.3499 9.77999C31.1558 9.81918 30.9801 9.92125 30.85 10.0704C30.7198 10.2195 30.6425 10.4074 30.6299 10.605L29.1349 35.865C29.1266 36.0036 29.1508 36.1422 29.2055 36.2697C29.2602 36.3973 29.3439 36.5104 29.45 36.6C29.5561 36.6895 29.6816 36.7531 29.8165 36.7857C29.9515 36.8182 30.0921 36.8188 30.2274 36.7875L36.9949 35.225C37.1407 35.1913 37.2926 35.1948 37.4367 35.2352C37.5808 35.2756 37.7124 35.3515 37.8194 35.4561C37.9265 35.5607 38.0055 35.6905 38.0493 35.8335C38.093 35.9766 38.1001 36.1284 38.0699 36.275L36.0599 46.1225C36.0289 46.2741 36.0378 46.4311 36.0858 46.5783C36.1338 46.7254 36.2192 46.8575 36.3337 46.9616C36.4482 47.0657 36.5877 47.1383 36.7387 47.1722C36.8897 47.2061 37.0469 47.2002 37.1949 47.155L41.3749 45.885C41.5231 45.8396 41.6806 45.8337 41.8318 45.8677C41.9831 45.9017 42.1229 45.9745 42.2374 46.0789C42.352 46.1834 42.4373 46.3159 42.4851 46.4634C42.5329 46.6108 42.5414 46.7682 42.5099 46.92L39.3124 62.3875C39.1124 63.355 40.3999 63.8825 40.9374 63.055L41.2949 62.5L61.1074 22.9625C61.1818 22.8135 61.213 22.6467 61.1975 22.4809C61.182 22.3151 61.1205 22.157 61.0198 22.0243C60.9192 21.8917 60.7834 21.7899 60.6279 21.7303C60.4724 21.6708 60.3034 21.656 60.1399 21.6875L53.1724 23.03C53.0224 23.0587 52.8676 23.0484 52.7227 23.0002C52.5778 22.952 52.4477 22.8674 52.3449 22.7545C52.242 22.6416 52.1699 22.5042 52.1353 22.3555C52.1007 22.2068 52.1049 22.0517 52.1474 21.905L56.6924 6.13999C56.7352 5.99285 56.7394 5.83716 56.7046 5.68791C56.6698 5.53866 56.5972 5.40089 56.4937 5.28786C56.3902 5.17483 56.2594 5.09035 56.1138 5.04256C55.9682 4.99477 55.8127 4.98527 55.6624 5.01499" fill="url(#paint1_linear_110_83)"/>
<defs>
<linearGradient id="paint0_linear_110_83" x1="4.42133" y1="10.6272" x2="45.3093" y2="66.1562" gradientUnits="userSpaceOnUse">
<stop stop-color="#41D1FF"/>
<stop offset="1" stop-color="#BD34FE"/>
</linearGradient>
<linearGradient id="paint1_linear_110_83" x1="38.1048" y1="6.30944" x2="45.5012" y2="57.0482" gradientUnits="userSpaceOnUse">
<stop stop-color="#FFEA83"/>
<stop offset="0.083" stop-color="#FFDD35"/>
<stop offset="1" stop-color="#FFA800"/>
</linearGradient>
</defs>
</svg>
